PathFileType	4	(X/Y/Z)	C:/Users/opensim2020/Desktop/walking_exp_matlab/subject02_walking10_straight_03.trc																																																																																																																															
DataRate	CameraRate	NumFrames	NumMarkers	Units	OrigDataRate	OrigDataStartFrame	OrigNumFrames																																																																																																																											
100	100	9	43	mm	100	2358	270																																																																																																																											
Frame#	Time	LFHD			RFHD			LBHD			RBHD			C7			T10			CLAV			STRN			RBAK			LSHO			LUPA			LELB			LFRM			LWRA			LWRB			LFIN			RSHO			RUPA			RELB			RFRM			RWRA			RWRB			RFIN			LASI			RASI			LPSI			RPSI			LTHI			LKNE			LTIB			LANK			LHEE			LTOE			RTHI			RKNE			RTIB			RANK			RHEE			RTOE			*39			*40			*41			*42		
		X1	Y1	Z1	X2	Y2	Z2	X3	Y3	Z3	X4	Y4	Z4	X5	Y5	Z5	X6	Y6	Z6	X7	Y7	Z7	X8	Y8	Z8	X9	Y9	Z9	X10	Y10	Z10	X11	Y11	Z11	X12	Y12	Z12	X13	Y13	Z13	X14	Y14	Z14	X15	Y15	Z15	X16	Y16	Z16	X17	Y17	Z17	X18	Y18	Z18	X19	Y19	Z19	X20	Y20	Z20	X21	Y21	Z21	X22	Y22	Z22	X23	Y23	Z23	X24	Y24	Z24	X25	Y25	Z25	X26	Y26	Z26	X27	Y27	Z27	X28	Y28	Z28	X29	Y29	Z29	X30	Y30	Z30	X31	Y31	Z31	X32	Y32	Z32	X33	Y33	Z33	X34	Y34	Z34	X35	Y35	Z35	X36	Y36	Z36	X37	Y37	Z37	X38	Y38	Z38	X39	Y39	Z39	X40	Y40	Z40	X41	Y41	Z41	X42	Y42	Z42	X43	Y43	Z43
																																																																																																																																		
169	1.68	283.91315	1719.26306	1436.32458	289.02383	1687.80273	1577.52527	148.57828	1653.46716	1427.78857	140.50421	1621.03613	1567.73425	93.69995	1505.99036	1478.875	35.12044	1230.71045	1472.53882	230.10431	1434.65417	1471.62231	277.16748	1261.05664	1472.07336	26.36275	1329.07837	1527.12109	177.17601	1491.38489	1302.57849	208.53745	1302.50061	1201.84155	254.22884	1169.02478	1174.55957	332.96725	1060.58704	1167.54297	442.28384	987.39728	1210.82654	407.30594	963.08447	1173.54297	461.10358	925.41998	1172.11096	154.77039	1456.62354	1666.82507	101.81741	1266.79004	1736.07483	102.68393	1120.96301	1753.94141	124.82216	1003.13068	1776.68359	173.06676	875.66833	1764.10205	121.85529	873.22144	1788.36438	157.06639	810.15997	1796.88416	255.15819	965.86261	1330.42749	275.23825	960.7373	1587.26147	52.56431	1010.32611	1428.64075	54.22498	1009.28113	1542.34424	134.98141	661.7735	1292.02783	63.3005	471.01883	1323.71545	-45.0762	307.93475	1326.50366	-104.02901	90.38285	1362.51416	-144.23044	70.08324	1414.33862	43.26788	31.78202	1345.7406	269.14697	667.24719	1679.88208	340.71933	471.53391	1645.58203	360.85861	286.20087	1661.64221	412.36377	96.98063	1638.47986	404.0235	33.80103	1582.36829	572.63635	87.31818	1659.98804	190.94203	1782.10815	1536.54846	2845.78833	1034.16919	-3357.44629	NaN	NaN	NaN	NaN	NaN	NaN
170	1.69	293.66602	1718.53467	1439.50037	298.15442	1686.7522	1580.57349	158.01669	1652.86914	1430.74097	149.60001	1620.18054	1570.37146	103.13931	1504.97595	1481.60461	44.79105	1229.547	1475.42285	239.48999	1433.80896	1474.2489	286.7919	1260.31201	1474.34595	36.00387	1327.86646	1529.90771	186.20917	1490.53845	1305.26123	216.61145	1301.60999	1204.67981	260.89835	1167.66345	1177.37744	338.80939	1058.5907	1170.26245	447.56921	984.56958	1213.3689	412.42105	960.46338	1176.14209	465.8244	922.21906	1174.70703	164.23724	1455.64246	1669.49536	110.78616	1265.89734	1738.34399	111.28084	1120.15015	1756.09546	133.0957	1002.29565	1778.96533	180.9747	874.49908	1766.12585	129.66591	872.18311	1790.20032	164.62929	809.0177	1798.7843	264.71115	965.10522	1332.47876	286.08771	960.46301	1589.46338	62.58456	1009.34418	1431.66968	64.6461	1008.34351	1545.30322	142.85628	661.81696	1293.35925	70.39583	471.17099	1324.66638	-40.45558	309.87665	1327.14502	-102.83973	93.04718	1362.20837	-143.1403	73.4684	1414.00061	43.41761	31.77131	1345.58899	281.51459	666.88293	1681.80225	350.32175	470.12854	1646.79309	367.25156	283.99625	1661.78784	414.9577	94.07353	1637.48535	405.14832	31.49956	1581.82092	575.12634	82.06619	1658.57166	200.25752	1781.12488	1539.42383	2845.77734	1034.17249	-3357.6604	NaN	NaN	NaN	NaN	NaN	NaN
171	1.7	303.04532	1717.41211	1442.73535	307.31479	1685.69226	1583.66785	167.47781	1652.00415	1433.42383	158.67766	1619.27039	1573.08789	112.43154	1504.00195	1484.53918	54.60023	1228.25842	1478.45691	248.89769	1432.9928	1476.89685	296.57126	1259.65125	1476.89063	45.63205	1326.60034	1532.80688	195.17442	1489.72375	1308.08923	224.75496	1300.70044	1207.80298	267.30649	1166.30884	1180.39307	344.16083	1056.56311	1173.01025	452.50287	981.44653	1215.85437	417.22476	957.74243	1178.95813	470.09366	918.79205	1177.35327	173.6783	1454.63782	1672.02393	120.19492	1265.1792	1741.06384	120.07516	1119.17114	1758.37231	141.48251	1001.30951	1781.08252	189.14273	873.45026	1768.30603	137.49937	871.06866	1791.9624	172.33385	807.67407	1800.55334	274.4617	964.31567	1334.83167	297.18677	960.23242	1591.85229	72.97758	1008.34601	1434.88745	75.25539	1007.24768	1548.45203	151.12166	661.2594	1294.94666	77.83536	471.34457	1325.56042	-35.70023	312.10114	1327.88196	-101.47626	95.92145	1361.92651	-142.09924	77.29609	1413.84082	43.6291	31.77788	1345.48694	293.55014	666.22296	1683.52197	359.52997	468.53107	1648.12781	373.186	281.50876	1661.82886	416.80756	90.81308	1636.47266	405.33951	28.77392	1581.22534	577.19653	75.94812	1656.53247	209.5863	1780.25928	1542.38745	2845.18018	1033.98511	-3360.26392	NaN	NaN	NaN	NaN	NaN	NaN
172	1.71	312.33447	1716.25269	1445.68762	316.43942	1684.66565	1586.69397	176.87117	1651.07275	1436.25977	167.87532	1618.31494	1575.83069	121.70875	1502.93213	1487.55273	64.38459	1227.01379	1481.79456	258.4491	1432.11487	1479.64038	306.48859	1258.94128	1479.41772	55.38694	1325.29224	1535.87329	204.15285	1488.84851	1310.98889	232.5974	1299.74463	1210.90991	273.72409	1164.91504	1183.59607	349.43448	1054.26929	1175.9502	457.02698	978.0365	1218.38318	421.17038	954.69452	1181.37891	473.7179	915.09393	1180.00256	183.51657	1453.79126	1675.04956	129.40479	1264.22083	1743.46228	128.86432	1118.14063	1760.5509	150.09937	1000.33795	1783.32336	197.47456	872.30969	1770.44922	145.9593	870.24738	1794.23877	180.48447	806.71442	1802.6554	284.42691	963.57104	1337.38684	308.25696	960.0545	1594.37024	83.47752	1007.27319	1438.25598	86.0723	1006.07843	1551.84375	159.76917	661.10522	1296.57031	85.57668	471.62039	1326.52087	-30.54954	314.21951	1328.67725	-99.98083	99.01926	1361.62024	-140.69046	81.085	1413.25269	43.88462	31.69166	1345.29456	304.65103	664.9505	1684.68909	368.21982	466.78052	1649.95508	378.86612	279.0921	1661.62	420.31995	89.03722	1636.17163	406.74011	30.52656	1581.19458	580.77374	67.5834	1654.76636	218.82358	1779.22278	1545.30017	2845.10693	1034.15369	-3360.22998	NaN	NaN	NaN	NaN	NaN	NaN
173	1.72	321.95889	1715.87793	1448.89758	325.70065	1684.00403	1589.79797	186.50517	1650.30444	1439.01135	177.26955	1617.69714	1579.00989	130.96857	1501.88757	1490.64001	74.14697	1226.27271	1485.3949	267.9826	1431.38586	1482.34753	316.34891	1258.61169	1482.16199	65.27551	1324.55603	1539.13318	213.00227	1487.96362	1313.90076	240.18233	1298.98645	1214.16992	279.50925	1163.34692	1186.51587	354.25113	1051.75122	1179.14624	461.08682	974.42633	1221.0437	424.73676	951.52808	1184.06519	477.00412	911.1748	1182.61877	193.32555	1452.92371	1678.06812	138.94698	1263.38831	1746.30627	138.13121	1117.52881	1763.35352	158.74254	999.22284	1785.50171	206.00259	871.26544	1772.7384	154.5083	869.25165	1796.28589	188.78764	805.58472	1804.68091	295.11142	962.87402	1339.86853	318.95508	959.84161	1596.90295	93.76273	1006.16779	1441.79724	96.95262	1004.95831	1555.41223	168.83315	660.8573	1298.26624	93.76003	471.92484	1327.62915	-25.13449	316.66357	1329.57007	-98.25274	102.58308	1361.21252	-139.01917	85.7019	1412.91858	43.90471	31.65266	1345.02942	315.7092	664.89209	1686.93823	376.54498	465.77533	1652.30994	385.87491	277.66431	1660.44922	426.5744	89.38708	1638.05225	409.8302	33.10492	1582.56665	587.7251	59.38425	1655.25647	228.13762	1778.60474	1548.37695	2845.27612	1034.16943	-3360.32886	NaN	NaN	NaN	NaN	NaN	NaN
174	1.73	331.41113	1715.61584	1451.99121	335.05649	1683.82043	1593.0127	195.90913	1650.01709	1441.82263	186.51611	1617.32153	1581.578	139.87904	1501.23853	1493.86755	83.95721	1225.91162	1488.9386	277.39178	1431.03381	1485.15857	326.08859	1258.52063	1484.92529	74.96819	1323.96741	1542.38696	221.85071	1487.33777	1316.7312	247.90497	1297.86755	1217.49377	285.47974	1161.81836	1189.94958	358.66226	1049.44971	1181.91028	464.87323	970.52478	1223.55554	428.36536	948.39893	1186.93994	479.72562	907.05627	1185.20923	202.98193	1452.06555	1680.97754	148.62331	1262.6272	1749.26514	147.30444	1116.54834	1765.72632	167.88911	998.49445	1788.10352	214.79097	870.30719	1775.00537	163.224	868.39343	1798.48096	197.37967	804.60187	1806.72302	305.79752	962.17554	1342.56555	329.64944	959.82251	1599.67078	104.10967	1005.33923	1445.40723	108.1815	1004.38257	1559.01282	178.06807	660.93304	1300.00916	102.51357	472.45593	1328.81201	-19.23642	319.47839	1330.54102	-96.05932	106.52686	1360.74707	-136.57761	90.48044	1412.56531	43.79199	31.68044	1344.56897	325.30246	665.19269	1689.21985	385.6362	466.13898	1655.06799	394.32657	278.24734	1662.99023	433.93893	89.25818	1641.61707	412.02652	35.94733	1586.05396	594.03607	52.88296	1654.13818	237.52477	1778.39795	1551.47583	2845.8457	1034.27551	-3357.4585	NaN	NaN	NaN	NaN	NaN	NaN
175	1.74	340.90103	1715.63806	1455.16296	344.35129	1683.77795	1596.10876	205.43669	1650.22119	1445.06677	195.97986	1617.47144	1584.8761	149.40132	1501.08118	1497.16272	93.81767	1225.33569	1492.13892	286.70224	1431.03345	1488.09277	335.87177	1258.7168	1487.76514	84.63628	1323.42334	1545.53198	230.52316	1486.8927	1319.50916	255.27893	1296.83875	1220.81311	291.44757	1160.40515	1193.78577	363.13013	1047.08398	1185.18445	468.14624	966.60077	1226.18762	430.96036	944.96088	1189.37341	481.78226	902.86505	1187.79321	213.09177	1451.646	1684.47437	158.79259	1262.15405	1752.60962	157.18756	1115.95081	1768.70886	177.0386	997.59552	1790.3739	223.83167	869.57086	1777.24683	172.20322	867.68317	1800.66846	206.18889	803.91217	1808.95129	316.68991	961.58508	1345.47241	340.43692	960.00458	1602.57202	114.76601	1004.64545	1448.85547	119.40553	1004.57532	1562.63391	188.05371	660.85907	1302.04871	112.00592	473.13428	1329.81104	-12.69616	322.60916	1331.44238	-93.51521	110.94969	1360.37488	-133.90869	95.95413	1412.30334	44.01842	31.66776	1344.39197	333.94592	665.32703	1691.25879	395.77209	467.31927	1657.58374	403.9491	279.92798	1668.14575	440.10062	89.22133	1643.57898	414.91199	36.55131	1588.18274	598.06146	47.56632	1654.38318	246.78156	1778.34241	1554.47217	2845.70166	1034.19702	-3357.42603	NaN	NaN	NaN	NaN	NaN	NaN
176	1.75	350.28064	1715.61108	1458.203	353.70416	1683.77161	1599.19348	214.77689	1650.43225	1448.10681	205.0986	1617.573	1587.62561	158.84517	1501.15479	1500.34949	103.69585	1225.12244	1495.15491	295.95123	1431.19226	1490.99146	345.7001	1259.13538	1490.78394	94.39928	1323.56445	1549.41785	239.22589	1486.68359	1322.24963	262.9079	1295.97949	1224.48657	297.08035	1159.08862	1197.50122	366.5159	1044.51746	1188.65796	470.90826	962.526	1228.81311	433.18143	941.51135	1192.12781	483.36868	898.61554	1190.3512	222.9563	1451.21741	1687.52026	168.9561	1261.72144	1755.79272	166.96082	1115.46228	1771.24109	186.80833	997.302	1793.13147	233.05988	869.00507	1779.57642	181.23282	867.09082	1802.73169	215.25551	803.3457	1811.04004	327.5687	960.98645	1348.69714	351.27515	960.62054	1605.72302	125.64931	1004.35974	1452.08911	130.37445	1005.51526	1566.10547	198.24913	661.14972	1304.07727	122.27941	473.95404	1330.70068	-5.40373	326.07053	1332.25562	-90.57137	115.80488	1359.91455	-130.76833	101.83894	1411.76965	44.30679	31.67799	1344.17932	343.01724	666.4436	1693.95117	406.75604	468.98376	1659.0282	414.04343	281.58304	1670.86108	442.96033	89.50484	1643.00305	415.10565	37.69779	1587.66443	599.06726	44.10215	1655.02429	256.24387	1778.42468	1557.47278	2845.67407	1034.33667	-3357.34717	NaN	NaN	NaN	NaN	NaN	NaN
177	1.76	359.78619	1715.8092	1461.24158	363.11401	1683.98987	1602.19568	224.18753	1650.58459	1450.83582	214.34065	1617.94312	1590.61157	168.10072	1501.54187	1503.37793	113.45765	1225.22937	1498.09094	305.23053	1431.6156	1493.87451	355.50198	1259.8905	1493.80444	104.03304	1323.76135	1552.93616	248.03242	1486.79968	1324.96704	269.78412	1295.39148	1227.90674	302.60843	1157.96716	1201.36194	370.18491	1042.46387	1191.72498	473.13306	958.46045	1231.49231	435.14066	938.32751	1195.15356	484.29251	894.41937	1192.85364	233.16653	1451.40198	1691.01221	179.45668	1261.70203	1759.10767	177.44514	1115.50317	1774.27148	196.765	997.09735	1795.63672	242.58444	868.74329	1781.89246	190.9384	867.09576	1805.33472	224.56906	803.13934	1813.37744	338.61719	960.72821	1352.12317	361.90781	961.40216	1608.92383	136.66203	1004.51141	1455.00159	141.02579	1007.04059	1569.30737	208.99849	661.31818	1306.17578	133.55951	474.75839	1331.50122	2.80074	329.73007	1332.99133	-86.91095	121.21552	1359.34167	-126.74469	108.71835	1411.73047	44.63433	31.71613	1343.94482	352.08871	667.46509	1695.74707	417.72632	470.05563	1659.50171	423.19043	282.19418	1672.07751	444.05603	89.62427	1641.18445	415.73538	38.05855	1587.30774	600.92609	43.09879	1653.87012	265.9552	1778.83728	1560.72913	2845.24902	1034.22778	-3360.30811	NaN	NaN	NaN	NaN	NaN	NaN
